<svg xmlns="http://www.w3.org/2000/svg" viewBox="0 0 48 48" width="48" height="48">
  <rect x="8" y="8" width="32" height="32" rx="4" fill="#fff" stroke="#4285F4" stroke-width="2"/>
  <rect x="8" y="8" width="32" height="10" rx="4" fill="#4285F4"/>
  <rect x="8" y="14" width="32" height="4" fill="#4285F4"/>
  <circle cx="16" cy="12" r="1.5" fill="rgba(255,255,255,0.8)"/>
  <circle cx="32" cy="12" r="1.5" fill="rgba(255,255,255,0.8)"/>
  <rect x="14" y="22" width="6" height="4" rx="1" fill="#EA4335"/>
  <rect x="22" y="22" width="6" height="4" rx="1" fill="#34A853"/>
  <rect x="30" y="22" width="6" height="4" rx="1" fill="#FBBC04"/>
  <rect x="14" y="28" width="6" height="4" rx="1" fill="#FBBC04"/>
  <rect x="22" y="28" width="6" height="4" rx="1" fill="#4285F4"/>
  <rect x="30" y="28" width="6" height="4" rx="1" fill="#EA4335"/>
  <rect x="14" y="34" width="6" height="4" rx="1" fill="#34A853"/>
  <rect x="22" y="34" width="6" height="4" rx="1" fill="#EA4335"/>
</svg>
